<svg width="80" height="80" viewBox="0 0 80 80" fill="none" xmlns="http://www.w3.org/2000/svg">
<circle cx="40" cy="40" r="40" fill="#151B3D"/>
<path d="M49.0909 39.0909H40.9091V30.9091C40.9091 30.668 40.8133 30.4368 40.6428 30.2663C40.4723 30.0958 40.2411 30 40 30C39.7589 30 39.5277 30.0958 39.3572 30.2663C39.1867 30.4368 39.0909 30.668 39.0909 30.9091V39.0909H30.9091C30.668 39.0909 30.4368 39.1867 30.2663 39.3572C30.0958 39.5277 30 39.7589 30 40C30 40.2411 30.0958 40.4723 30.2663 40.6428C30.4368 40.8133 30.668 40.9091 30.9091 40.9091H39.0909V49.0909C39.0909 49.332 39.1867 49.5632 39.3572 49.7337C39.5277 49.9042 39.7589 50 40 50C40.2411 50 40.4723 49.9042 40.6428 49.7337C40.8133 49.5632 40.9091 49.332 40.9091 49.0909V40.9091H49.0909C49.332 40.9091 49.5632 40.8133 49.7337 40.6428C49.9042 40.4723 50 40.2411 50 40C50 39.7589 49.9042 39.5277 49.7337 39.3572C49.5632 39.1867 49.332 39.0909 49.0909 39.0909Z" fill="#F8FAFC"/>
</svg>
