<!-- Shape: analytics -->
<svg xmlns:xlink="http://www.w3.org/1999/xlink" fill="none" width="26"
    xmlns="http://www.w3.org/2000/svg" style="-webkit-print-color-adjust:exact" id="screenshot-5fe0d3de-ea34-8086-8003-b28c422502fc" version="1.1" viewBox="169 606 26 26" height="26">
    <g id="shape-5fe0d3de-ea34-8086-8003-b28c422502fc" style="fill:#000000" rx="0" ry="0">
        <g id="shape-5fe0d3de-ea34-8086-8003-b28c42254667">
            <g class="fills" id="fills-5fe0d3de-ea34-8086-8003-b28c42254667">
                <path rx="0" ry="0" style="fill:#ecf6ff;fill-opacity:1" d="M182.632,618.187L182.632,606.843C182.632,606.386,182.948,606.000,183.354,606.000C188.938,606.000,193.465,611.093,193.465,617.375C193.465,617.832,193.122,618.187,192.716,618.187L182.632,618.187ZZM170.354,619.812C170.354,613.653,174.421,608.554,179.698,607.742C180.113,607.676,180.465,608.052,180.465,608.524L180.465,620.625L187.530,628.572C187.832,628.912,187.809,629.471,187.462,629.745C185.692,631.167,183.526,632.000,181.188,632.000C175.207,632.000,170.354,626.546,170.354,619.812ZZM194.115,620.625C194.535,620.625,194.865,621.021,194.810,621.488C194.463,624.327,193.249,626.851,191.475,628.714C191.204,628.999,190.780,628.979,190.518,628.679L183.354,620.625L194.115,620.625ZZ">
                </path>
            </g>
        </g>
    </g>
</svg>