<!-- Shape: svg-path -->
<svg xmlns:xlink="http://www.w3.org/1999/xlink" fill="none" width="26"
    xmlns="http://www.w3.org/2000/svg" style="-webkit-print-color-adjust:exact" id="screenshot-5fe0d3de-ea34-8086-8003-b2a3d50e46ab" version="1.1" viewBox="169 239.714 26 22.286" height="22.286">
    <g id="shape-5fe0d3de-ea34-8086-8003-b2a3d50e46ab">
        <g class="fills" id="fills-5fe0d3de-ea34-8086-8003-b2a3d50e46ab">
            <path rx="0" ry="0" style="fill:#ecf6ff;fill-opacity:1" d="M169.000,241.571C169.000,240.544,169.830,239.714,170.857,239.714L193.143,239.714C194.170,239.714,195.000,240.544,195.000,241.571C195.000,242.599,194.170,243.429,193.143,243.429L170.857,243.429C169.830,243.429,169.000,242.599,169.000,241.571ZZM169.000,250.857C169.000,249.830,169.830,249.000,170.857,249.000L193.143,249.000C194.170,249.000,195.000,249.830,195.000,250.857C195.000,251.884,194.170,252.714,193.143,252.714L170.857,252.714C169.830,252.714,169.000,251.884,169.000,250.857ZZM195.000,260.143C195.000,261.170,194.170,262.000,193.143,262.000L170.857,262.000C169.830,262.000,169.000,261.170,169.000,260.143C169.000,259.116,169.830,258.286,170.857,258.286L193.143,258.286C194.170,258.286,195.000,259.116,195.000,260.143ZZ">
            </path>
        </g>
    </g>
</svg>