<svg width="24" height="24" viewBox="0 0 24 24" fill="none" xmlns="http://www.w3.org/2000/svg">
    <path
        d="M23.1722 11.3438C23.2693 11.4295 23.3462 11.5312 23.3987 11.6433C23.4513 11.7553 23.4783 11.8754 23.4783 11.9966C23.4783 12.1179 23.4513 12.238 23.3987 12.35C23.3462 12.462 23.2693 12.5638 23.1722 12.6495L12.4689 22.1081C11.0986 23.3196 9.24027 24.0001 7.3026 24C5.36493 23.9999 3.50667 23.3192 2.13662 22.1075C0.766567 20.8959 -0.00305197 19.2527 -0.00292967 17.5393C-0.00280737 15.8259 0.767046 14.1828 2.13727 12.9713L15.0857 1.3534C16.0639 0.487482 17.3911 0.000649613 18.7753 6.49643e-07C20.1594 -0.000648313 21.4872 0.484939 22.4665 1.34994C23.4458 2.21494 23.9963 3.3885 23.9971 4.61244C23.9978 5.83639 23.4486 7.01046 22.4704 7.87638L9.5194 19.4943C8.93124 20.0144 8.13354 20.3066 7.30176 20.3066C6.46999 20.3066 5.67228 20.0144 5.08412 19.4943C4.49597 18.9742 4.16555 18.2689 4.16555 17.5334C4.16555 16.7979 4.49597 16.0925 5.08412 15.5725L15.9506 5.81163C16.0457 5.72184 16.1603 5.6498 16.2874 5.59974C16.4146 5.54967 16.5518 5.52261 16.6909 5.52013C16.8301 5.51765 16.9684 5.53982 17.0977 5.58531C17.227 5.63081 17.3448 5.69872 17.444 5.78505C17.5432 5.87138 17.6218 5.97439 17.6753 6.088C17.7288 6.20162 17.7561 6.32355 17.7555 6.44662C17.7549 6.56969 17.7265 6.69142 17.6719 6.80463C17.6173 6.91784 17.5377 7.02026 17.4377 7.10585L6.56994 16.877C6.47264 16.9624 6.3953 17.0639 6.34234 17.1757C6.28939 17.2874 6.26185 17.4074 6.26131 17.5286C6.26076 17.6498 6.28722 17.7699 6.33917 17.882C6.39112 17.9942 6.46754 18.0962 6.56407 18.1822C6.6606 18.2683 6.77535 18.3366 6.90177 18.3835C7.0282 18.4303 7.16381 18.4546 7.30087 18.4551C7.43793 18.4556 7.57376 18.4322 7.7006 18.3863C7.82744 18.3403 7.9428 18.2728 8.0401 18.1874L20.9898 6.57524C21.578 6.05624 21.9089 5.3519 21.9097 4.61717C21.9106 3.88243 21.5813 3.17749 20.9944 2.65742C20.4074 2.13735 19.6109 1.84475 18.78 1.84399C17.949 1.84324 17.1518 2.13438 16.5637 2.65338L3.61787 14.2667C3.1329 14.6949 2.74804 15.2033 2.48528 15.763C2.22252 16.3226 2.087 16.9226 2.08645 17.5286C2.08591 18.1345 2.22035 18.7347 2.48211 19.2947C2.74386 19.8548 3.1278 20.3637 3.612 20.7926C4.09621 21.2214 4.67119 21.5617 5.30413 21.794C5.93706 22.0264 6.61556 22.1462 7.30087 22.1467C7.98618 22.1472 8.66489 22.0283 9.29825 21.7969C9.9316 21.5654 10.5072 21.2259 10.9922 20.7978L21.6968 11.3391C21.8932 11.1668 22.159 11.0705 22.4356 11.0714C22.7123 11.0723 22.9772 11.1702 23.1722 11.3438Z"
        fill="#0F172A" />
</svg>