<svg width="48" height="48" viewBox="0 0 48 48" fill="none" xmlns="http://www.w3.org/2000/svg">
    <path
        d="M31.8023 24.7471C31.8023 28.5187 28.5526 31.7113 24.3728 31.7113C20.193 31.7113 16.9434 28.5187 16.9434 24.7471C16.9434 20.9755 20.193 17.783 24.3728 17.783C28.5526 17.783 31.8023 20.9755 31.8023 24.7471Z"
        stroke="white" stroke-width="3" />
    <line y1="-1.5" x2="16.9665" y2="-1.5" transform="matrix(0.725763 0.687945 -0.725763 0.687945 6.25391 8.72314)"
        stroke="white" stroke-width="3" />
    <line y1="-1.5" x2="6.75344" y2="-1.5" transform="matrix(-0.428521 0.903532 -0.919955 -0.392025 19.6035 30.5813)"
        stroke="white" stroke-width="3" />
    <line y1="-1.5" x2="7.60609" y2="-1.5" transform="matrix(0.820237 -0.572023 0.613148 0.789968 30.7012 22.6926)"
        stroke="white" stroke-width="3" />
    <ellipse cx="7.91593" cy="7.50345" rx="7.91593" ry="7.50345" fill="white" />
    <path
        d="M46.5004 13.9954C46.5004 16.6777 44.1823 18.9873 41.1515 18.9873C38.1208 18.9873 35.8027 16.6777 35.8027 13.9954C35.8027 11.313 38.1208 9.00342 41.1515 9.00342C44.1823 9.00342 46.5004 11.313 46.5004 13.9954Z"
        stroke="white" stroke-width="3" />
    <path
        d="M20.9925 41.5081C20.9925 44.1904 18.6744 46.5 15.6437 46.5C12.613 46.5 10.2949 44.1904 10.2949 41.5081C10.2949 38.8257 12.613 36.5161 15.6437 36.5161C18.6744 36.5161 20.9925 38.8257 20.9925 41.5081Z"
        stroke="white" stroke-width="3" />
</svg>