<svg width="24" height="25" viewBox="0 0 24 25" fill="none" xmlns="http://www.w3.org/2000/svg">
<path d="M22 17.1774V5.10744C22 3.90744 21.02 3.01744 19.83 3.11744H19.77C17.67 3.29744 14.48 4.36744 12.7 5.48744L12.53 5.59744C12.24 5.77744 11.76 5.77744 11.47 5.59744L11.22 5.44744C9.44 4.33744 6.26 3.27744 4.16 3.10744C2.97 3.00744 2 3.90744 2 5.09744V17.1774C2 18.1374 2.78 19.0374 3.74 19.1574L4.03 19.1974C6.2 19.4874 9.55 20.5874 11.47 21.6374L11.51 21.6574C11.78 21.8074 12.21 21.8074 12.47 21.6574C14.39 20.5974 17.75 19.4874 19.93 19.1974L20.26 19.1574C21.22 19.0374 22 18.1374 22 17.1774Z" stroke="#0F172A" stroke-width="1.5" stroke-linecap="round" stroke-linejoin="round"/>
<path d="M12 5.92749V20.9275" stroke="#0F172A" stroke-width="1.5" stroke-linecap="round" stroke-linejoin="round"/>
<path d="M7.75 8.92749H5.5" stroke="#0F172A" stroke-width="1.5" stroke-linecap="round" stroke-linejoin="round"/>
<path d="M8.5 11.9275H5.5" stroke="#0F172A" stroke-width="1.5" stroke-linecap="round" stroke-linejoin="round"/>
</svg>
