<svg width="24" height="25" viewBox="0 0 24 25" fill="none" xmlns="http://www.w3.org/2000/svg">
<path d="M17 10.4375H19C21 10.4375 22 9.4375 22 7.4375V5.4375C22 3.4375 21 2.4375 19 2.4375H17C15 2.4375 14 3.4375 14 5.4375V7.4375C14 9.4375 15 10.4375 17 10.4375Z" stroke="#0F172A" stroke-width="1.5" stroke-miterlimit="10" stroke-linecap="round" stroke-linejoin="round"/>
<path d="M5 22.4375H7C9 22.4375 10 21.4375 10 19.4375V17.4375C10 15.4375 9 14.4375 7 14.4375H5C3 14.4375 2 15.4375 2 17.4375V19.4375C2 21.4375 3 22.4375 5 22.4375Z" stroke="#0F172A" stroke-width="1.5" stroke-miterlimit="10" stroke-linecap="round" stroke-linejoin="round"/>
<path d="M6 10.4375C8.20914 10.4375 10 8.64664 10 6.4375C10 4.22836 8.20914 2.4375 6 2.4375C3.79086 2.4375 2 4.22836 2 6.4375C2 8.64664 3.79086 10.4375 6 10.4375Z" stroke="#0F172A" stroke-width="1.5" stroke-miterlimit="10" stroke-linecap="round" stroke-linejoin="round"/>
<path d="M18 22.4375C20.2091 22.4375 22 20.6466 22 18.4375C22 16.2284 20.2091 14.4375 18 14.4375C15.7909 14.4375 14 16.2284 14 18.4375C14 20.6466 15.7909 22.4375 18 22.4375Z" stroke="#0F172A" stroke-width="1.5" stroke-miterlimit="10" stroke-linecap="round" stroke-linejoin="round"/>
</svg>
