<svg width="61" height="61" viewBox="0 0 61 61" fill="none" xmlns="http://www.w3.org/2000/svg">
    <path fill-rule="evenodd" clip-rule="evenodd"
        d="M0 31C0 28.5147 2.01472 26.5 4.5 26.5H16.5C17.8807 26.5 19 27.6193 19 29V58C19 59.3807 17.8807 60.5 16.5 60.5H4.5C2.01472 60.5 0 58.4853 0 56V31ZM5 31.5V55.5H14V31.5H5Z"
        fill="#606770" />
    <path fill-rule="evenodd" clip-rule="evenodd"
        d="M26.5005 5.5C26.2244 5.5 26.0005 5.72386 26.0005 6V15C26.0005 15.3881 25.9102 15.7709 25.7366 16.118L18.2366 31.118C17.6191 32.353 16.1175 32.8535 14.8825 32.2361C13.6476 31.6186 13.147 30.1169 13.7645 28.882L21.0005 14.4098V6C21.0005 2.96243 23.463 0.5 26.5005 0.5H28.5005C33.7473 0.5 38.0005 4.75329 38.0005 10V21H49.6572C56.7261 21 61.7755 27.844 59.6896 34.5983L55.2193 49.0736C53.2132 55.5696 47.2081 60 40.4095 60H16.0005C14.6198 60 13.5005 58.8807 13.5005 57.5C13.5005 56.1193 14.6198 55 16.0005 55H40.4095C45.015 55 49.083 51.9987 50.4419 47.5983L54.9123 33.1229C56.0049 29.585 53.36 26 49.6572 26H35.5005C34.1198 26 33.0005 24.8807 33.0005 23.5V10C33.0005 7.51472 30.9858 5.5 28.5005 5.5H26.5005Z"
        fill="#606770" />
</svg>