<svg width="24" height="24" viewBox="0 0 24 24" fill="none" xmlns="http://www.w3.org/2000/svg">
    <path d="M22 13V9C22 4 20 2 15 2H9C4 2 2 4 2 9V15C2 20 4 22 9 22H13" stroke="#F8FAFC" stroke-width="1.5"
        stroke-linecap="round" stroke-linejoin="round" />
    <path
        d="M7.32812 14.49L9.70813 11.4C10.0481 10.96 10.6781 10.88 11.1181 11.22L12.9482 12.66C13.3882 13 14.0181 12.92 14.3581 12.49L16.6682 9.51001"
        stroke="#F8FAFC" stroke-width="1.5" stroke-linecap="round" stroke-linejoin="round" />
    <path
        d="M19.4812 15.8199L19.7612 16.3899C19.9012 16.6699 20.2512 16.9299 20.5612 16.9899L20.9412 17.0499C22.0812 17.2399 22.3512 18.0799 21.5312 18.9099L21.1812 19.2599C20.9512 19.4999 20.8212 19.9599 20.8912 20.2799L20.9412 20.4899C21.2512 21.8699 20.5212 22.3999 19.3212 21.6799L19.0612 21.5299C18.7512 21.3499 18.2512 21.3499 17.9412 21.5299L17.6812 21.6799C16.4712 22.4099 15.7412 21.8699 16.0612 20.4899L16.1112 20.2799C16.1812 19.9599 16.0512 19.4999 15.8212 19.2599L15.4712 18.9099C14.6512 18.0799 14.9212 17.2399 16.0612 17.0499L16.4412 16.9899C16.7412 16.9399 17.1012 16.6699 17.2412 16.3899L17.5212 15.8199C18.0612 14.7299 18.9412 14.7299 19.4812 15.8199Z"
        stroke="#F8FAFC" stroke-width="1.5" stroke-linecap="round" stroke-linejoin="round" />
</svg>