<svg width="50" height="50" viewBox="0 0 50 50" fill="none" xmlns="http://www.w3.org/2000/svg">
    <line y1="-1.5" x2="8.18319" y2="-1.5" transform="matrix(0.613607 0.789611 -0.835934 0.548831 22.0938 42.6155)"
        stroke="white" stroke-width="3" />
    <line y1="-1.5" x2="11.8784" y2="-1.5" transform="matrix(0.690168 0.723649 -0.778669 0.627435 7.86914 27.5576)"
        stroke="white" stroke-width="3" />
    <line y1="-1.5" x2="11.9672" y2="-1.5" transform="matrix(0.793097 -0.609096 0.672641 0.739969 8.58789 21.2891)"
        stroke="white" stroke-width="3" />
    <line x1="9.5332" y1="48.5" x2="38.6693" y2="48.5" stroke="white" stroke-width="3" stroke-linecap="round" />
    <line y1="-1.5" x2="7.87679" y2="-1.5" transform="matrix(0.999128 0.0417438 -0.0493914 0.998779 25.1055 11.8645)"
        stroke="white" stroke-width="3" />
    <ellipse cx="7.06505" cy="22.3789" rx="7.06505" ry="6.49397" fill="white" />
    <path
        d="M25.5482 10.2768C25.5482 12.3736 23.6587 14.2844 21.0563 14.2844C18.454 14.2844 16.5645 12.3736 16.5645 10.2768C16.5645 8.18004 18.454 6.26929 21.0563 6.26929C23.6587 6.26929 25.5482 8.18004 25.5482 10.2768Z"
        stroke="white" stroke-width="3" />
    <path
        d="M24.5423 37.969C24.5423 40.0658 22.6528 41.9765 20.0505 41.9765C17.4481 41.9765 15.5586 40.0658 15.5586 37.969C15.5586 35.8722 17.4481 33.9614 20.0505 33.9614C22.6528 33.9614 24.5423 35.8722 24.5423 37.969Z"
        stroke="white" stroke-width="3" />
    <path d="M48.001 6.84444L38.5184 2L32.9766 10.435L38.5184 19.098L48.001 14.4246" stroke="white" stroke-width="3"
        stroke-linecap="round" />
</svg>