<svg width="24" height="24" viewBox="0 0 38 38" fill="none" xmlns="http://www.w3.org/2000/svg">
    <g filter="url(#filter0_dd_248_26163)">
        <g clip-path="url(#clip0_248_26163)">
            <path
                d="M6.99707 12C6.99707 7.58172 10.5788 4 14.9971 4H22.9971C27.4153 4 30.9971 7.58172 30.9971 12V20C30.9971 24.4183 27.4153 28 22.9971 28H14.9971C10.5788 28 6.99707 24.4183 6.99707 20V12Z"
                fill="white" />
            <path
                d="M14.9971 12H12.9971C12.4666 12 11.9579 12.2107 11.5829 12.5858C11.2078 12.9609 10.9971 13.4696 10.9971 14V18C10.9971 18.5304 11.2078 19.0391 11.5829 19.4142C11.9579 19.7893 12.4666 20 12.9971 20H14.9971V16H13.9971"
                stroke="#0F172A" stroke-width="2" stroke-linecap="round" stroke-linejoin="round" />
            <path d="M18.9971 12V20" stroke="#0F172A" stroke-width="2" stroke-linecap="round" stroke-linejoin="round" />
            <path d="M22.9971 16H25.9971" stroke="#0F172A" stroke-width="2" stroke-linecap="round"
                stroke-linejoin="round" />
            <path d="M26.9971 12H22.9971V20" stroke="#0F172A" stroke-width="2" stroke-linecap="round"
                stroke-linejoin="round" />
        </g>
    </g>
    <defs>
        <filter id="filter0_dd_248_26163" x="-0.00292969" y="0" filterUnits="userSpaceOnUse"
            color-interpolation-filters="sRGB">
            <feFlood flood-opacity="0" result="BackgroundImageFix" />
            <feColorMatrix in="SourceAlpha" type="matrix" values="0 0 0 0 0 0 0 0 0 0 0 0 0 0 0 0 0 0 127 0"
                result="hardAlpha" />
            <feMorphology radius="1" operator="erode" in="SourceAlpha" result="effect1_dropShadow_248_26163" />
            <feOffset dy="3" />
            <feGaussianBlur stdDeviation="4" />
            <feColorMatrix type="matrix" values="0 0 0 0 0.196078 0 0 0 0 0.196078 0 0 0 0 0.278431 0 0 0 0.05 0" />
            <feBlend mode="normal" in2="BackgroundImageFix" result="effect1_dropShadow_248_26163" />
            <feColorMatrix in="SourceAlpha" type="matrix" values="0 0 0 0 0 0 0 0 0 0 0 0 0 0 0 0 0 0 127 0"
                result="hardAlpha" />
            <feOffset />
            <feGaussianBlur stdDeviation="0.5" />
            <feColorMatrix type="matrix" values="0 0 0 0 0.0470588 0 0 0 0 0.101961 0 0 0 0 0.294118 0 0 0 0.24 0" />
            <feBlend mode="normal" in2="effect1_dropShadow_248_26163" result="effect2_dropShadow_248_26163" />
            <feBlend mode="normal" in="SourceGraphic" in2="effect2_dropShadow_248_26163" result="shape" />
        </filter>
        <clipPath id="clip0_248_26163">
            <path
                d="M6.99707 12C6.99707 7.58172 10.5788 4 14.9971 4H22.9971C27.4153 4 30.9971 7.58172 30.9971 12V20C30.9971 24.4183 27.4153 28 22.9971 28H14.9971C10.5788 28 6.99707 24.4183 6.99707 20V12Z"
                fill="white" />
        </clipPath>
    </defs>
</svg>