<svg width="24" height="25" viewBox="0 0 24 25" fill="none" xmlns="http://www.w3.org/2000/svg">
<path d="M17 18.8675H13L8.54999 21.8275C7.88999 22.2675 7 21.7975 7 20.9975V18.8675C4 18.8675 2 16.8675 2 13.8675V7.86743C2 4.86743 4 2.86743 7 2.86743H17C20 2.86743 22 4.86743 22 7.86743V13.8675C22 16.8675 20 18.8675 17 18.8675Z" stroke="#0F172A" stroke-width="1.5" stroke-miterlimit="10" stroke-linecap="round" stroke-linejoin="round"/>
<path d="M11.9998 11.7974V11.5874C11.9998 10.9074 12.4198 10.5474 12.8398 10.2574C13.2498 9.97739 13.6598 9.6174 13.6598 8.9574C13.6598 8.0374 12.9198 7.29736 11.9998 7.29736C11.0798 7.29736 10.3398 8.0374 10.3398 8.9574" stroke="#0F172A" stroke-width="1.5" stroke-linecap="round" stroke-linejoin="round"/>
<path d="M11.9955 14.1875H12.0045" stroke="#0F172A" stroke-width="1.5" stroke-linecap="round" stroke-linejoin="round"/>
</svg>
