<!-- Shape: svg-path -->
<svg xmlns:xlink="http://www.w3.org/1999/xlink"  width="25.998"
    xmlns="http://www.w3.org/2000/svg" style="-webkit-print-color-adjust:exact" id="screenshot-5fe0d3de-ea34-8086-8003-b28b68461b39" version="1.1" viewBox="169 348 25.998 26" height="26">
    <g id="shape-5fe0d3de-ea34-8086-8003-b28b68461b39">
        <g class="fills" id="fills-5fe0d3de-ea34-8086-8003-b28b68461b39">
            <path rx="0" ry="0" style="fill:#ecf6ff;fill-opacity:1" d="M194.991,360.975C194.991,361.889,194.314,362.605,193.547,362.605L192.102,362.605L192.134,370.740C192.134,370.877,192.125,371.014,192.111,371.151L192.111,371.969C192.111,373.091,191.303,374.000,190.306,374.000L189.583,374.000C189.534,374.000,189.484,374.000,189.434,373.995C189.371,374.000,189.308,374.000,189.245,374.000L187.778,374.000L186.694,374.000C185.697,374.000,184.889,373.091,184.889,371.969L184.889,370.750L184.889,367.500C184.889,366.601,184.243,365.875,183.444,365.875L180.556,365.875C179.757,365.875,179.111,366.601,179.111,367.500L179.111,370.750L179.111,371.969C179.111,373.091,178.303,374.000,177.306,374.000L176.222,374.000L174.782,374.000C174.715,374.000,174.647,373.995,174.579,373.990C174.525,373.995,174.471,374.000,174.417,374.000L173.694,374.000C172.697,374.000,171.889,373.091,171.889,371.969L171.889,366.281C171.889,366.236,171.889,366.185,171.893,366.139L171.893,362.605L170.444,362.605C169.632,362.605,169.000,361.894,169.000,360.975C169.000,360.518,169.135,360.111,169.451,359.756L181.025,348.406C181.341,348.051,181.702,348.000,182.018,348.000C182.334,348.000,182.695,348.102,182.966,348.355L194.494,359.756C194.856,360.111,195.036,360.518,194.991,360.975ZZ">
            </path>
        </g>
    </g>
</svg>