<svg width="21" height="21" viewBox="0 0 21 21" fill="none" xmlns="http://www.w3.org/2000/svg">
<path d="M9.00001 12.3252L20 1.3252M9.00001 12.3252L12.5 19.3252C12.5439 19.4209 12.6143 19.5021 12.703 19.5589C12.7916 19.6158 12.8947 19.6461 13 19.6461C13.1053 19.6461 13.2084 19.6158 13.2971 19.5589C13.3857 19.5021 13.4561 19.4209 13.5 19.3252L20 1.3252M9.00001 12.3252L2.00001 8.8252C1.90427 8.78132 1.82314 8.71088 1.76626 8.62225C1.70938 8.53361 1.67914 8.43051 1.67914 8.3252C1.67914 8.21988 1.70938 8.11678 1.76626 8.02814C1.82314 7.93951 1.90427 7.86907 2.00001 7.8252L20 1.3252" stroke="#354052" stroke-width="2" stroke-linecap="round" stroke-linejoin="round"/>
</svg>
