<svg width="146" height="80" viewBox="0 0 146 80" fill="none" xmlns="http://www.w3.org/2000/svg">
<path fill-rule="evenodd" clip-rule="evenodd" d="M48.2914 23.4973V53.0593H43.3594V23.4973H48.2914ZM57.035 48.4812V53.0603H48.2917V48.4812H57.035Z" fill="#5BB2E6"/>
<path fill-rule="evenodd" clip-rule="evenodd" d="M132.752 23.5854V53.1474H127.82V23.5854H132.752ZM141.496 48.5693V53.1485H132.753V48.5693H141.496Z" fill="#5BB2E6"/>
<path d="M64.3839 53.0595C62.2933 53.0595 60.5042 52.0271 59.0166 49.9623C57.529 47.8975 56.7852 45.401 56.7852 42.4728V23.4956H61.6098V42.4728C61.6098 43.4864 61.8846 44.4062 62.4341 45.2321C62.9835 46.058 63.6334 46.4709 64.3839 46.4709V53.0595ZM64.987 53.0032V46.3583C65.6302 46.1331 66.1596 45.645 66.5751 44.8942C66.9905 44.1433 67.1984 43.3362 67.1984 42.4728V23.4956H71.862V42.4728C71.862 45.2133 71.1987 47.5973 69.8719 49.6245C68.5451 51.6517 66.9168 52.778 64.987 53.0032Z" fill="#5BB2E6"/>
<path d="M80.6671 53.0595C78.5765 53.0595 76.7872 52.0271 75.2996 49.9623C73.812 47.8975 73.0684 45.401 73.0684 42.4728V23.4956H77.893V42.4728C77.893 43.4864 78.1676 44.4062 78.7171 45.2321C79.2665 46.058 79.9166 46.4709 80.6671 46.4709V53.0595ZM81.2702 53.0032V46.3583C81.9135 46.1331 82.4428 45.645 82.8583 44.8942C83.2737 44.1433 83.4814 43.3362 83.4814 42.4728V23.4956H88.1452V42.4728C88.1452 45.2133 87.4819 47.5973 86.1551 49.6245C84.8283 51.6517 83.2 52.778 81.2702 53.0032Z" fill="#5BB2E6"/>
<path d="M94.9389 34.9832H97.3513L106.598 53.0595H100.407L95.0998 40.8961H94.9389V34.9832ZM89.5918 53.0595V23.4956H94.4162V53.0595H89.5918ZM99.2408 37.2358L97.673 34.1386H95.3409L100.326 23.4956H106.357L99.2408 37.2358Z" fill="#5BB2E6"/>
<path d="M119.787 23.4956H119.827L127.064 53.0595H121.918L117.214 33.9698L119.787 23.4956ZM113.394 46.9777L111.907 53.0595H106.801L114.038 23.4956H119.144L114.842 41.065H118.299L119.787 46.9777H113.394Z" fill="#5BB2E6"/>
<path d="M33.5257 59.0154C35.2777 59.3076 37.0131 57.8717 37.4019 55.8082C37.7907 53.7446 36.6858 51.8349 34.9338 51.5426C33.1819 51.2503 31.4465 52.6863 31.0577 54.7498C30.6688 56.8134 31.7738 58.7231 33.5257 59.0154Z" stroke="#5BB2E6" stroke-width="1.13068" stroke-miterlimit="1.5" stroke-linecap="round" stroke-linejoin="round"/>
<path d="M22.5395 55.0524C23.5004 55.2126 24.4472 54.4526 24.6541 53.3548C24.861 52.257 24.2497 51.2371 23.2888 51.0768C22.3278 50.9165 21.3811 51.6766 21.1742 52.7744C20.9673 53.8722 21.5786 54.8921 22.5395 55.0524Z" stroke="#5BB2E6" stroke-width="1.13396" stroke-miterlimit="1.5" stroke-linecap="round" stroke-linejoin="round"/>
<path d="M6.09787 46.8152C7.77391 47.0948 9.4477 45.6491 9.83639 43.586C10.2251 41.523 9.18148 39.6238 7.50544 39.3442C5.8294 39.0646 4.15561 40.5103 3.76692 42.5734C3.37823 44.6364 4.42183 46.5355 6.09787 46.8152Z" stroke="#5BB2E6" stroke-width="1.12588" stroke-miterlimit="1.5" stroke-linecap="round" stroke-linejoin="round"/>
<path d="M11.5689 37.6329C13.8859 38.0194 16.1833 36.1083 16.7003 33.3643C17.2174 30.6203 15.7583 28.0825 13.4413 27.6959C11.1244 27.3094 8.82695 29.2205 8.3099 31.9645C7.79286 34.7086 9.25198 37.2463 11.5689 37.6329Z" stroke="#5BB2E6" stroke-width="1.12986" stroke-miterlimit="1.5" stroke-linecap="round" stroke-linejoin="round"/>
<path d="M13.2128 23.5989C15.0028 23.8974 16.7658 22.4841 17.1506 20.4422C17.5354 18.4002 16.3963 16.5028 14.6063 16.2042C12.8163 15.9056 11.0533 17.3189 10.6685 19.3609C10.2837 21.4029 11.4228 23.3003 13.2128 23.5989Z" stroke="#5BB2E6" stroke-width="1.13402" stroke-miterlimit="1.5" stroke-linecap="round" stroke-linejoin="round"/>
<path d="M24.7426 28.1525C25.7036 28.3127 26.6503 27.5527 26.8572 26.4549C27.0641 25.3571 26.4528 24.3372 25.4919 24.1769C24.5309 24.0166 23.5842 24.7767 23.3773 25.8745C23.1704 26.9723 23.7817 27.9922 24.7426 28.1525Z" stroke="#5BB2E6" stroke-width="1.13396" stroke-miterlimit="1.5" stroke-linecap="round" stroke-linejoin="round"/>
<path d="M37.6425 27.6234C39.3753 27.9125 41.0985 26.4564 41.4914 24.3711C41.8843 22.2859 40.7981 20.3611 39.0653 20.072C37.3325 19.7829 35.6092 21.239 35.2163 23.3243C34.8234 25.4095 35.9096 27.3343 37.6425 27.6234Z" stroke="#5BB2E6" stroke-width="1.12879" stroke-miterlimit="1.5" stroke-linecap="round" stroke-linejoin="round"/>
<path d="M15.2895 48.1117C16.2504 48.272 17.1972 47.5119 17.4041 46.4141C17.611 45.3163 16.9997 44.2964 16.0388 44.1361C15.0778 43.9759 14.1311 44.7359 13.9242 45.8337C13.7173 46.9316 14.3286 47.9514 15.2895 48.1117Z" stroke="#5BB2E6" stroke-width="1.13396" stroke-miterlimit="1.5" stroke-linecap="round" stroke-linejoin="round"/>
<path d="M35.3969 46.9576C37.3559 47.2844 39.2994 45.663 39.7378 43.3361C40.1763 41.0092 38.9436 38.858 36.9846 38.5312C35.0256 38.2044 33.0821 39.8258 32.6436 42.1526C32.2052 44.4795 33.4379 46.6308 35.3969 46.9576Z" stroke="#5BB2E6" stroke-width="1.13049" stroke-miterlimit="1.5" stroke-linecap="round" stroke-linejoin="round"/>
<path d="M24.6209 41.6636C25.9587 41.8868 27.2747 40.8395 27.5602 39.3244C27.8458 37.8093 26.9927 36.4002 25.6548 36.177C24.317 35.9539 23.001 37.0012 22.7155 38.5162C22.4299 40.0313 23.283 41.4404 24.6209 41.6636Z" stroke="#5BB2E6" stroke-width="1.13471" stroke-miterlimit="1.5" stroke-linecap="round" stroke-linejoin="round"/>
<path d="M22.8802 45.7986C26.4219 46.3894 29.9268 43.5048 30.7086 39.3556C31.4904 35.2064 29.2532 31.3639 25.7115 30.7731C22.1699 30.1823 18.665 33.0669 17.8832 37.2161C17.1013 41.3653 19.3386 45.2078 22.8802 45.7986Z" stroke="#5BB2E6" stroke-width="1.1309" stroke-miterlimit="1.5" stroke-linecap="round" stroke-linejoin="round"/>
<path fill-rule="evenodd" clip-rule="evenodd" d="M24.7289 41.537C24.5311 41.4782 24.3429 41.5291 24.3088 41.6505L23.1731 45.6969C23.139 45.8183 23.2719 45.9648 23.4697 46.0236C23.6675 46.0824 23.8558 46.0315 23.8898 45.9101L25.0255 41.8637C25.0596 41.7423 24.9267 41.5958 24.7289 41.537Z" fill="#5BB2E6" fill-opacity="0.91"/>
<path fill-rule="evenodd" clip-rule="evenodd" d="M27.3553 44.404C27.19 44.538 27.2339 44.9414 27.4534 45.3042L31.5183 52.0233C31.7378 52.3861 32.0503 52.5719 32.2157 52.4379C32.3811 52.3039 32.3372 51.9005 32.1177 51.5377L28.0527 44.8186C27.8332 44.4558 27.5207 44.27 27.3553 44.404Z" fill="#5BB2E6" fill-opacity="0.91"/>
<path fill-rule="evenodd" clip-rule="evenodd" d="M29.3211 33.4734C29.4502 33.636 29.8087 33.5042 30.121 33.1793L35.7093 27.3668C36.0217 27.042 36.1706 26.646 36.0415 26.4834C35.9125 26.3208 35.554 26.4526 35.2416 26.7775L29.6533 32.59C29.3409 32.9148 29.192 33.3108 29.3211 33.4734Z" fill="#5BB2E6" fill-opacity="0.91"/>
<path fill-rule="evenodd" clip-rule="evenodd" d="M21.2965 32.0396C21.4609 31.9044 21.4111 31.4964 21.1853 31.1294L16.3076 23.1994C16.0818 22.8323 15.7649 22.644 15.6004 22.7792C15.4359 22.9144 15.4858 23.3223 15.7116 23.6894L20.5893 31.6193C20.8151 31.9864 21.132 32.1748 21.2965 32.0396Z" fill="#5BB2E6" fill-opacity="0.91"/>
<path fill-rule="evenodd" clip-rule="evenodd" d="M9.7114 42.5027C9.74744 42.7108 10.1292 42.7784 10.5633 42.6535L17.1137 40.7686C17.5479 40.6437 17.8711 40.3732 17.8351 40.1651C17.7991 39.9569 17.4173 39.8893 16.9832 40.0142L10.4327 41.8991C9.99857 42.0241 9.67537 42.2945 9.7114 42.5027Z" fill="#5BB2E6" fill-opacity="0.91"/>
<path fill-rule="evenodd" clip-rule="evenodd" d="M24.9897 36.2886C25.2051 36.2626 25.3649 35.8931 25.3462 35.4639L25.1687 31.3958C25.15 30.9666 24.9598 30.6393 24.7443 30.6653C24.5288 30.6913 24.369 31.0608 24.3878 31.49L24.5653 35.5581C24.584 35.9872 24.7742 36.3146 24.9897 36.2886Z" fill="#5BB2E6" fill-opacity="0.91"/>
<path fill-rule="evenodd" clip-rule="evenodd" d="M23.3374 37.4721C23.4273 37.2764 23.1221 36.9141 22.6563 36.6635L19.5568 34.9958C19.091 34.7452 18.6399 34.7006 18.5501 34.8962C18.4602 35.0919 18.7654 35.4542 19.2312 35.7048L22.3307 37.3725C22.7965 37.6231 23.2476 37.6677 23.3374 37.4721Z" fill="#5BB2E6" fill-opacity="0.91"/>
<path fill-rule="evenodd" clip-rule="evenodd" d="M23.0744 39.9387C22.9423 39.7785 22.5781 39.9247 22.2617 40.2649L19.5618 43.1676C19.2453 43.5079 19.0955 43.9143 19.2275 44.0745C19.3595 44.2347 19.7237 44.0885 20.0402 43.7482L22.7401 40.8455C23.0566 40.5053 23.2064 40.0989 23.0744 39.9387Z" fill="#5BB2E6" fill-opacity="0.91"/>
<path fill-rule="evenodd" clip-rule="evenodd" d="M30.656 40.1824C30.7111 39.9749 30.518 39.7412 30.225 39.661L28.0348 39.0614C27.7418 38.9811 27.4592 39.0846 27.4041 39.2921C27.349 39.4997 27.5422 39.7334 27.8352 39.8136L30.0254 40.4132C30.3184 40.4934 30.601 40.39 30.656 40.1824Z" fill="#5BB2E6" fill-opacity="0.91"/>
<path fill-rule="evenodd" clip-rule="evenodd" d="M27.3515 44.4017C27.1886 44.5342 27.2349 44.9366 27.4548 45.2996L31.5273 52.0231C31.7472 52.3861 32.058 52.5733 32.2209 52.4407C32.3838 52.3082 32.3375 51.9058 32.1176 51.5428L28.0451 44.8193C27.8251 44.4563 27.5143 44.2691 27.3515 44.4017Z" fill="#5BB2E6" fill-opacity="0.91"/>
</svg>
