<svg width="24" height="25" viewBox="0 0 24 25" fill="none" xmlns="http://www.w3.org/2000/svg">
<path d="M8.5 19.4375H8C4 19.4375 2 18.4375 2 13.4375V8.4375C2 4.4375 4 2.4375 8 2.4375H16C20 2.4375 22 4.4375 22 8.4375V13.4375C22 17.4375 20 19.4375 16 19.4375H15.5C15.19 19.4375 14.89 19.5875 14.7 19.8375L13.2 21.8375C12.54 22.7175 11.46 22.7175 10.8 21.8375L9.3 19.8375C9.14 19.6175 8.77 19.4375 8.5 19.4375Z" stroke="#0F172A" stroke-width="1.5" stroke-miterlimit="10" stroke-linecap="round" stroke-linejoin="round"/>
<path d="M15.9965 11.4375H16.0054" stroke="#0F172A" stroke-width="2" stroke-linecap="round" stroke-linejoin="round"/>
<path d="M11.9955 11.4375H12.0045" stroke="#0F172A" stroke-width="2" stroke-linecap="round" stroke-linejoin="round"/>
<path d="M7.99451 11.4375H8.00349" stroke="#0F172A" stroke-width="2" stroke-linecap="round" stroke-linejoin="round"/>
</svg>
