<svg width="26" height="26" viewBox="0 0 26 26" fill="none" xmlns="http://www.w3.org/2000/svg">
<path d="M9.45302 20.2843H8.91922C4.64886 20.2843 2.51367 19.2167 2.51367 13.8788V8.54081C2.51367 4.27044 4.64886 2.13525 8.91922 2.13525H17.46C21.7303 2.13525 23.8655 4.27044 23.8655 8.54081V13.8788C23.8655 18.1491 21.7303 20.2843 17.46 20.2843H16.9262C16.5952 20.2843 16.2749 20.4445 16.0721 20.7114L14.4707 22.8465C13.7661 23.786 12.6131 23.786 11.9085 22.8465L10.3071 20.7114C10.1363 20.4765 9.74127 20.2843 9.45302 20.2843Z" stroke="#0F172A" stroke-width="1.60139" stroke-miterlimit="10" stroke-linecap="round" stroke-linejoin="round"/>
<path d="M17.4557 11.7435H17.4653" stroke="#0F172A" stroke-width="2.13518" stroke-linecap="round" stroke-linejoin="round"/>
<path d="M13.1842 11.7435H13.1938" stroke="#0F172A" stroke-width="2.13518" stroke-linecap="round" stroke-linejoin="round"/>
<path d="M8.91465 11.7435H8.92424" stroke="#0F172A" stroke-width="2.13518" stroke-linecap="round" stroke-linejoin="round"/>
</svg>
