<svg width="25" height="24" viewBox="0 0 25 24" fill="none" xmlns="http://www.w3.org/2000/svg">
<path d="M12.7559 12C15.5173 12 17.7559 9.76142 17.7559 7C17.7559 4.23858 15.5173 2 12.7559 2C9.99444 2 7.75586 4.23858 7.75586 7C7.75586 9.76142 9.99444 12 12.7559 12Z" stroke="#0F172A" stroke-width="1.5" stroke-linecap="round" stroke-linejoin="round"/>
<path d="M19.9649 15.74L16.4249 19.2801C16.2849 19.4201 16.1549 19.68 16.1249 19.87L15.9349 21.22C15.8649 21.71 16.2049 22.05 16.6949 21.98L18.0449 21.79C18.2349 21.76 18.5049 21.63 18.6349 21.49L22.1749 17.95C22.7849 17.34 23.0749 16.63 22.1749 15.73C21.2849 14.84 20.5749 15.13 19.9649 15.74Z" stroke="#0F172A" stroke-width="1.5" stroke-miterlimit="10" stroke-linecap="round" stroke-linejoin="round"/>
<path d="M19.4551 16.25C19.7551 17.33 20.595 18.17 21.675 18.47" stroke="#0F172A" stroke-width="1.5" stroke-miterlimit="10" stroke-linecap="round" stroke-linejoin="round"/>
<path d="M4.16602 22C4.16602 18.13 8.01604 15 12.756 15C13.796 15 14.796 15.15 15.726 15.43" stroke="#0F172A" stroke-width="1.5" stroke-linecap="round" stroke-linejoin="round"/>
</svg>
