<svg width="24" height="25" viewBox="0 0 24 25" fill="none" xmlns="http://www.w3.org/2000/svg">
<path d="M11 2.4375H9C4 2.4375 2 4.4375 2 9.4375V15.4375C2 20.4375 4 22.4375 9 22.4375H15C20 22.4375 22 20.4375 22 15.4375V13.4375" stroke="#0F172A" stroke-width="1.5" stroke-linecap="round" stroke-linejoin="round"/>
<path d="M16.0399 3.45751L8.15988 11.3375C7.85988 11.6375 7.55988 12.2275 7.49988 12.6575L7.06988 15.6675C6.90988 16.7575 7.67988 17.5175 8.76988 17.3675L11.7799 16.9375C12.1999 16.8775 12.7899 16.5775 13.0999 16.2775L20.9799 8.39751C22.3399 7.03751 22.9799 5.45751 20.9799 3.45751C18.9799 1.45751 17.3999 2.09751 16.0399 3.45751Z" stroke="#0F172A" stroke-width="1.5" stroke-miterlimit="10" stroke-linecap="round" stroke-linejoin="round"/>
<path d="M14.9102 4.5874C15.5802 6.9774 17.4502 8.8474 19.8502 9.5274" stroke="#0F172A" stroke-width="1.5" stroke-miterlimit="10" stroke-linecap="round" stroke-linejoin="round"/>
</svg>
