<?xml version="1.0" ?>
<svg id="Layer_1"
style="enable-background:new 0 0 48 48;"
version="1.1"
viewBox="0 0 48 48"
xml:space="preserve"
xmlns="http://www.w3.org/2000/svg"
xmlns:xlink="http://www.w3.org/1999/xlink">
<g>
<path d="M41.7,8.2c-0.4-0.4-1-0.4-1.4,0L23.9,24.5l-6.4-7.1c-0.4-0.4-1-0.4-1.4-0.1c-0.4,0.4-0.4,1-0.1,1.4   c0.8,0.9,1.6,1.8,2.4,2.6c1.3,1.4,2.6,2.8,3.8,4.2c0.2,0.2,0.4,0.4,0.5,0.6c0.3,0.3,0.6,0.8,1.1,0.8c0.3,0,0.5-0.1,0.7-0.3l17.2-17   C42.1,9.2,42.1,8.6,41.7,8.2z"/>
<g>
<path d="M23.9,42c-1.8,0-3.7-0.3-5.5-0.9c-4.6-1.5-8.3-4.6-10.4-8.9C3.5,23.4,7,12.5,15.7,8c4.6-2.4,10-2.6,14.8-0.7    c0.9,0.3,1.7,0.8,2.5,1.2c0.5,0.3,0.6,0.9,0.3,1.4s-0.9,0.6-1.4,0.3c-0.7-0.4-1.4-0.8-2.2-1.1c-4.3-1.7-9-1.5-13.1,0.6    c-7.8,4-10.9,13.7-6.9,21.5c1.9,3.8,5.2,6.6,9.3,7.9c4,1.3,8.3,0.9,12-1c7-3.6,10.3-12,7.7-19.5c-0.2-0.5,0.1-1.1,0.6-1.3    c0.5-0.2,1.1,0.1,1.3,0.6c2.9,8.4-0.8,17.9-8.7,21.9C29.4,41.3,26.7,42,23.9,42z"/>
</g>
</g>
</svg>
