<svg width="24" height="25" viewBox="0 0 24 25" fill="none" xmlns="http://www.w3.org/2000/svg">
<path fill-rule="evenodd" clip-rule="evenodd" d="M12 10.1875C10.7574 10.1875 9.75 11.1949 9.75 12.4375C9.75 13.6801 10.7574 14.6875 12 14.6875C13.2426 14.6875 14.25 13.6801 14.25 12.4375C14.25 11.1949 13.2426 10.1875 12 10.1875ZM8.25 12.4375C8.25 10.3664 9.92893 8.6875 12 8.6875C14.0711 8.6875 15.75 10.3664 15.75 12.4375C15.75 14.5086 14.0711 16.1875 12 16.1875C9.92893 16.1875 8.25 14.5086 8.25 12.4375Z" fill="#0F172A"/>
<path fill-rule="evenodd" clip-rule="evenodd" d="M9.60347 4.20756C9.3358 3.76161 8.77209 3.62289 8.35347 3.87194L8.34256 3.87843L6.61251 4.86834C6.06514 5.18112 5.8763 5.89027 6.1894 6.43218L5.54 6.80739L6.18888 6.43129C6.72395 7.35442 6.86779 8.3662 6.38982 9.19561C5.91192 10.0249 4.96479 10.4074 3.9 10.4074C3.26678 10.4074 2.75 10.929 2.75 11.5574V13.3174C2.75 13.9457 3.26678 14.4674 3.9 14.4674C4.96479 14.4674 5.91192 14.8499 6.38982 15.6792C6.86773 16.5085 6.72398 17.5201 6.18909 18.4431C5.87642 18.985 6.06491 19.6935 6.6121 20.0062L8.35352 21.0027C8.77214 21.2518 9.33578 21.1132 9.60345 20.6673L9.71093 20.4816C10.2458 19.5588 11.052 18.9299 12.0087 18.9299C12.9662 18.9299 13.77 19.5593 14.3 20.4831C14.3002 20.4836 14.3004 20.484 14.3007 20.4844L14.4065 20.6672C14.6742 21.1132 15.2379 21.2519 15.6565 21.0028L15.6674 20.9963L17.3975 20.0064C17.9434 19.6945 18.1351 18.9952 17.8198 18.4412C17.2858 17.5187 17.1426 16.5079 17.6202 15.6792C18.0981 14.8499 19.0452 14.4674 20.11 14.4674C20.7432 14.4674 21.26 13.9457 21.26 13.3174V11.5574C21.26 10.9242 20.7384 10.4074 20.11 10.4074C19.0452 10.4074 18.0981 10.0249 17.6202 9.19561C17.1423 8.36636 17.286 7.35481 17.8208 6.43183C18.1336 5.88996 17.9451 5.18129 17.3979 4.86857L15.6565 3.87204C15.2379 3.62298 14.6742 3.76161 14.4065 4.20756L14.2991 4.39317C13.7642 5.31597 12.958 5.94489 12.0012 5.94489C11.0439 5.94489 10.2402 5.31563 9.71021 4.39193C9.70992 4.39141 9.70962 4.3909 9.70933 4.39039L9.60347 4.20756ZM7.59248 2.5793C8.75191 1.89394 10.2226 2.31442 10.8946 3.44392L10.8991 3.45159L11.0091 3.64161L11.0107 3.64439C11.3807 4.28985 11.7666 4.44489 12.0012 4.44489C12.237 4.44489 12.6259 4.28853 13.0009 3.64161C13.0009 3.64172 13.001 3.6415 13.0009 3.64161L13.1154 3.44389C13.7874 2.31438 15.2581 1.89394 16.4175 2.57931L18.1421 3.56621C19.4147 4.29342 19.8463 5.92451 19.1194 7.1826L19.1189 7.18349C18.7439 7.83036 18.8028 8.24358 18.9198 8.44666C19.0369 8.64987 19.3648 8.90739 20.11 8.90739C21.5616 8.90739 22.76 10.0906 22.76 11.5574V13.3174C22.76 14.769 21.5768 15.9674 20.11 15.9674C19.3648 15.9674 19.0369 16.2249 18.9198 16.4281C18.8028 16.6312 18.7439 17.0444 19.1189 17.6913L19.1212 17.6953C19.8444 18.9609 19.4157 20.5805 18.1425 21.3083C18.1424 21.3084 18.1426 21.3083 18.1425 21.3083L16.4174 22.2955C15.258 22.9808 13.7874 22.5603 13.1154 21.4309L13.1109 21.4232L13.0009 21.2332L12.9993 21.2304C12.6293 20.5849 12.2434 20.4299 12.0087 20.4299C11.773 20.4299 11.3841 20.5862 11.0091 21.2332C11.009 21.2333 11.0091 21.2331 11.0091 21.2332L10.8946 21.4309C10.2226 22.5604 8.75199 22.9808 7.59257 22.2955L5.8679 21.3086C5.86776 21.3085 5.86803 21.3086 5.8679 21.3086C4.59558 20.5812 4.16378 18.9501 4.8906 17.6922L4.89112 17.6913C5.26606 17.0444 5.20721 16.6312 5.09018 16.4281C4.97308 16.2249 4.64521 15.9674 3.9 15.9674C2.43322 15.9674 1.25 14.769 1.25 13.3174V11.5574C1.25 10.1057 2.43322 8.90739 3.9 8.90739C4.64521 8.90739 4.97308 8.64987 5.09018 8.44667C5.20721 8.24358 5.26606 7.83036 4.89112 7.18349L4.8906 7.1826C4.16378 5.92464 4.59518 4.29377 5.86749 3.56644L7.59248 2.5793Z" fill="#0F172A"/>
</svg>
