<svg width="19" height="18" viewBox="0 0 19 18" fill="none" xmlns="http://www.w3.org/2000/svg">
<path d="M0.855469 2.50733C0.855469 1.93012 1.05818 1.45393 1.46358 1.07876C1.86898 0.703576 2.39602 0.515991 3.04466 0.515991C3.68173 0.515991 4.19716 0.700684 4.59099 1.0701C4.99639 1.45106 5.1991 1.94744 5.1991 2.55928C5.1991 3.11339 5.00219 3.57514 4.60836 3.94456C4.20296 4.32551 3.67014 4.51599 3.00991 4.51599H2.99253C2.35546 4.51599 1.84003 4.32551 1.4462 3.94456C1.05237 3.56361 0.855469 3.08453 0.855469 2.50733ZM1.08134 17.6588V6.09175H4.93848V17.6588H1.08134ZM7.07555 17.6588H10.9327V11.2C10.9327 10.7959 10.979 10.4842 11.0717 10.2649C11.2338 9.8724 11.48 9.54051 11.8101 9.26923C12.1402 8.99794 12.5543 8.86231 13.0524 8.86231C14.3497 8.86231 14.9983 9.73388 14.9983 11.477V17.6588H18.8555V11.0268C18.8555 9.31829 18.4501 8.02248 17.6393 7.13937C16.8284 6.25625 15.757 5.81469 14.425 5.81469C12.9308 5.81469 11.7667 6.45538 10.9327 7.73677V7.7714H10.9153L10.9327 7.73677V6.09175H7.07555C7.09871 6.46115 7.11029 7.60977 7.11029 9.53763C7.11029 11.4655 7.09871 14.1725 7.07555 17.6588Z" fill="#F8FAFC"/>
</svg>
