<svg width="21" height="15" viewBox="0 0 21 15" fill="none" xmlns="http://www.w3.org/2000/svg">
<path d="M11.2957 14.0671L7.2335 13.9912C5.91825 13.9647 4.59973 14.0175 3.31027 13.7434C1.3487 13.3339 1.20974 11.326 1.06433 9.64178C0.863965 7.27394 0.941532 4.86312 1.31964 2.51504C1.5331 1.19753 2.37313 0.411356 3.67221 0.325806C8.05756 0.0153309 12.4721 0.0521255 16.8477 0.196973C17.3098 0.210252 17.7751 0.282828 18.2308 0.365438C20.4801 0.768357 20.535 3.04375 20.6808 4.95921C20.8262 6.89443 20.7648 8.83959 20.4869 10.7616C20.2639 12.353 19.8373 13.6876 18.0369 13.8164C15.7811 13.9849 13.5771 14.1205 11.315 14.0773C11.3151 14.0671 11.3021 14.0671 11.2957 14.0671ZM8.90751 10.0381C10.6074 9.04069 12.2749 8.05991 13.9651 7.06918C12.262 6.07177 10.5977 5.09098 8.90751 4.10026V10.0381Z" fill="#F8FAFC"/>
</svg>
