<svg width="12" height="14" viewBox="0 0 12 14" fill="none" xmlns="http://www.w3.org/2000/svg">
<path d="M10.7575 0.310634C11.3886 0.152847 12 0.630206 12 1.28078V10H11.9919C12.0956 10.7299 11.1933 11.548 9.89677 11.8693C8.53376 12.207 7.25119 11.8677 7.03206 11.1115C6.81293 10.3553 7.74023 9.46843 9.10323 9.13071C9.80037 8.95798 10.4765 8.96235 11 9.10903V2.25L5 3.75V12H4.9919C5.09558 12.7299 4.1933 13.548 2.89677 13.8693C1.53377 14.207 0.251193 13.8677 0.0320633 13.1115C-0.187066 12.3553 0.740227 11.4684 2.10323 11.1307C2.80037 10.958 3.47647 10.9623 4 11.109V2.78078C4 2.32191 4.3123 1.92193 4.75746 1.81064L10.7575 0.310634Z" fill="white"/>
</svg>
