<svg width="9" height="9" viewBox="0 0 9 9" fill="none" xmlns="http://www.w3.org/2000/svg">
<path d="M7.95289 3.45294H5.54731V1.04706C5.54731 0.468696 5.07817 0 4.5002 0C3.92181 0 3.45309 0.468726 3.45309 1.04706V3.45294H1.04711C0.468717 3.45294 0 3.92167 0 4.5C0 5.07836 0.468747 5.54706 1.04711 5.54706H3.45309V7.95294C3.45309 8.5313 3.92184 9 4.5002 9C5.07856 9 5.54731 8.53127 5.54731 7.95294V5.54706H7.95289C8.53128 5.54706 9 5.07833 9 4.5C9 3.92164 8.53125 3.45294 7.95289 3.45294Z" fill="white"/>
</svg>
