<svg width="24" height="24" viewBox="0 0 24 24" fill="#151b3d" xmlns="http://www.w3.org/2000/svg">
    <path
        d="M24 9.83403C21.5914 9.88086 19.3434 9.22526 17.4165 8.00771V16.3901C17.4165 19.5744 15.1685 22.3841 11.743 23.508C8.37097 24.6319 4.51724 23.789 2.16218 21.4007C-0.2464 18.9656 -0.674593 15.5471 1.03818 12.7374C2.75095 9.97452 6.28354 8.42917 9.92317 8.85063V13.0652C8.26393 12.5969 6.44411 13.112 5.42715 14.3296C4.46372 15.594 4.46372 17.233 5.48067 18.4505C6.49763 19.6681 8.31745 20.1832 9.92317 19.7149C11.5824 19.2466 12.7064 17.8886 12.7064 16.3901V0H17.4165C17.4165 0.37463 17.4165 0.702431 17.5236 1.07706C17.8447 2.62241 18.8617 3.98044 20.4139 4.82336C21.4308 5.43213 22.7154 5.75993 24 5.75993V9.83403Z"
        fill="#151B3D" />
</svg>