<?xml version="1.0" ?><svg id="Layer_1" fill="#0F172A" style="enable-background:new 0 0 100 100;" version="1.1" viewBox="0 0 100 100" xml:space="preserve" xmlns="http://www.w3.org/2000/svg" xmlns:xlink="http://www.w3.org/1999/xlink"><path d="M86.258,21.347c-0.781-0.781-2.047-0.781-2.828,0l-4.066,4.066l-4.066-4.066c-0.781-0.781-2.047-0.781-2.828,0  c-0.781,0.781-0.781,2.047,0,2.828l4.066,4.066l-4.066,4.066c-0.781,0.781-0.781,2.047,0,2.828c0.391,0.391,0.902,0.586,1.414,0.586  s1.023-0.195,1.414-0.586l4.066-4.066l4.066,4.066c0.391,0.391,0.902,0.586,1.414,0.586s1.023-0.195,1.414-0.586  c0.781-0.781,0.781-2.047,0-2.828l-4.066-4.066l4.066-4.066C87.039,23.394,87.039,22.127,86.258,21.347z"/><path d="M9.492,38.456c0.671-0.15,1.218-0.634,1.448-1.282c3.008-8.468,8.825-15.87,16.381-20.843  c0.573-0.377,0.913-1.022,0.9-1.708c-0.014-0.686-0.378-1.318-0.965-1.673c-2.483-1.502-5.341-2.296-8.263-2.296  C10.175,10.652,3,17.827,3,26.646c0,4.252,1.646,8.253,4.636,11.267c0.38,0.383,0.893,0.591,1.42,0.591  C9.201,38.504,9.348,38.488,9.492,38.456z M7,26.646c0-6.614,5.381-11.994,11.994-11.994c1.09,0,2.168,0.147,3.204,0.433  C16.295,19.681,11.563,25.7,8.513,32.493C7.525,30.727,7,28.727,7,26.646z" fill="#0F172A00"/><path d="M81.01,10.65c-0.217,0-0.433,0.002-0.648,0.017c-0.004,0-0.007,0.002-0.011,0.002c-0.33-0.023-0.66-0.039-0.99-0.039  c-4.974,0-9.595,2.049-12.92,5.661C61.339,13.874,55.693,12.59,50,12.59c-21.168,0-38.39,17.222-38.39,38.39S28.832,89.37,50,89.37  s38.39-17.222,38.39-38.39c0-2.441-0.24-4.864-0.691-7.232c5.679-3.054,9.271-8.971,9.271-15.508c0-0.192-0.001-0.385-0.01-0.576  C96.985,27.33,97,26.991,97,26.65C97,17.828,89.827,10.65,81.01,10.65z M76.837,45.666c0.348,1.745,0.523,3.527,0.523,5.314  c0,15.086-12.273,27.36-27.36,27.36S22.64,66.066,22.64,50.98c0-15.092,12.273-27.37,27.36-27.37c4.11,0,8.184,0.933,11.864,2.709  c-0.003,0.03-0.002,0.062-0.005,0.092c-0.063,0.604-0.099,1.213-0.099,1.824c0,0.002,0,0.003,0,0.005c0,0,0,0,0,0s0,0,0,0  c0,0.003,0,0.006,0,0.008c0,0.565,0.029,1.123,0.081,1.675c0.018,0.187,0.053,0.369,0.077,0.555c0.046,0.364,0.091,0.729,0.16,1.086  c0.042,0.218,0.1,0.429,0.15,0.643c0.073,0.317,0.143,0.635,0.234,0.945c0.065,0.225,0.146,0.443,0.22,0.664  c0.097,0.291,0.192,0.583,0.304,0.867c0.088,0.223,0.188,0.439,0.285,0.657c0.12,0.272,0.239,0.543,0.372,0.807  c0.109,0.217,0.229,0.427,0.347,0.638c0.141,0.254,0.284,0.507,0.437,0.753c0.129,0.207,0.266,0.407,0.403,0.609  c0.162,0.238,0.326,0.473,0.499,0.702c0.148,0.195,0.301,0.385,0.457,0.574c0.181,0.22,0.366,0.437,0.557,0.648  c0.165,0.182,0.335,0.359,0.507,0.534c0.2,0.202,0.403,0.399,0.613,0.592c0.181,0.167,0.365,0.33,0.553,0.489  c0.217,0.184,0.44,0.36,0.666,0.534c0.196,0.15,0.392,0.297,0.594,0.439c0.234,0.164,0.474,0.319,0.716,0.472  c0.208,0.131,0.416,0.262,0.63,0.385c0.251,0.144,0.508,0.276,0.766,0.408c0.219,0.112,0.436,0.225,0.66,0.327  c0.268,0.122,0.542,0.231,0.816,0.34c0.227,0.09,0.452,0.184,0.683,0.265c0.285,0.1,0.577,0.183,0.869,0.268  c0.232,0.068,0.461,0.142,0.696,0.2c0.308,0.076,0.623,0.132,0.937,0.192c0.229,0.044,0.455,0.096,0.687,0.131  C76.771,45.652,76.803,45.661,76.837,45.666z M50,85.37c-18.963,0-34.39-15.427-34.39-34.39S31.037,16.59,50,16.59  c4.846,0,9.656,1.03,14.041,2.988c-0.501,0.885-0.924,1.812-1.263,2.769C58.776,20.558,54.409,19.61,50,19.61  c-17.292,0-31.36,14.073-31.36,31.37c0,17.292,14.068,31.36,31.36,31.36s31.36-14.068,31.36-31.36c0-1.748-0.159-3.489-0.449-5.206  c1.014-0.089,2.013-0.276,2.998-0.539c0.316,1.886,0.481,3.81,0.481,5.746C84.39,69.943,68.963,85.37,50,85.37z M92.969,27.478  c-0.006,0.061-0.009,0.122-0.009,0.183v0.04c0,0.036,0.001,0.072,0.003,0.108c0.008,0.144,0.007,0.288,0.007,0.432  c0,5.484-3.266,10.409-8.311,12.544c-1.695,0.707-3.478,1.066-5.299,1.066c-0.254,0-0.508-0.009-0.753-0.025  c-0.004,0-0.007,0.001-0.011,0c-0.005,0-0.009-0.002-0.014-0.002c-0.449-0.025-0.893-0.072-1.329-0.14  C70.71,40.669,65.76,35.003,65.76,28.24c0-0.896,0.088-1.786,0.261-2.645c0-0.003,0-0.005,0.001-0.008  c0.001-0.003,0.002-0.005,0.002-0.008c0.39-2.018,1.262-3.951,2.525-5.595c2.6-3.403,6.54-5.354,10.812-5.354  c0.281,0,0.563,0.008,0.845,0.032c0.032,0.003,0.062-0.003,0.094-0.001c0.031,0.001,0.06,0.009,0.091,0.009c0.004,0,0.007,0,0.011,0  c0.077,0,0.14-0.003,0.209-0.01c0.134-0.015,0.267-0.011,0.4-0.01c6.611,0,11.99,5.383,11.99,12  C93,26.929,92.993,27.207,92.969,27.478z" fill="#0F172A"/><path d="M52,50.149V30.677c0-1.104-0.896-2-2-2s-2,0.896-2,2v20.301c0,0.53,0.211,1.039,0.586,1.414l9.35,9.35  c0.391,0.391,0.902,0.586,1.414,0.586s1.023-0.195,1.414-0.586c0.781-0.781,0.781-2.047,0-2.828L52,50.149z" fill="#0F172A"/></svg>