<svg width="24" height="24" viewBox="0 0 24 24" fill="none" xmlns="http://www.w3.org/2000/svg">
<path fill-rule="evenodd" clip-rule="evenodd" d="M2 12.0001C2 6.47798 6.47652 2.00146 11.9986 2.00146C17.5207 2.00146 21.9972 6.47798 21.9972 12.0001C21.9972 17.5221 17.5207 21.9986 11.9986 21.9986C6.47652 21.9986 2 17.5221 2 12.0001ZM11.9986 0.00146484C5.37195 0.00146484 0 5.37341 0 12.0001C0 18.6267 5.37195 23.9986 11.9986 23.9986C18.6252 23.9986 23.9972 18.6267 23.9972 12.0001C23.9972 5.37341 18.6252 0.00146484 11.9986 0.00146484ZM8.08239 14.2089C7.9525 13.6721 7.41204 13.3423 6.87525 13.4721C6.33846 13.602 6.0086 14.1425 6.13849 14.6793C6.44718 15.955 7.20486 17.0814 8.27151 17.8814C9.33711 18.6806 10.6514 19.1103 11.9987 19.1103C13.346 19.1103 14.6603 18.6806 15.7259 17.8814C16.7925 17.0814 17.5502 15.955 17.8589 14.6793C17.9888 14.1425 17.6589 13.602 17.1221 13.4721C16.5854 13.3423 16.0449 13.6721 15.915 14.2089C15.7198 15.0157 15.2356 15.7491 14.5259 16.2814C13.8152 16.8144 12.9242 17.1103 11.9987 17.1103C11.0732 17.1103 10.1822 16.8144 9.47151 16.2814C8.76184 15.7491 8.2776 15.0156 8.08239 14.2089ZM9.73288 10.5396C9.18947 10.6382 8.66901 10.2776 8.57039 9.73423C8.53908 9.56171 8.46766 9.4444 8.40694 9.38368C8.37809 9.35482 8.35575 9.34243 8.34468 9.33757C8.33904 9.3351 8.33548 9.33419 8.33398 9.33387L8.33252 9.33362L8.33225 9.3336L8.33199 9.33362L8.33052 9.33387C8.32902 9.33419 8.32547 9.3351 8.31982 9.33757C8.30876 9.34243 8.28642 9.35482 8.25756 9.38368C8.19684 9.4444 8.12543 9.56171 8.09412 9.73423C7.9955 10.2776 7.47503 10.6382 6.93163 10.5396C6.38822 10.441 6.02764 9.92051 6.12626 9.3771C6.22093 8.85546 6.45999 8.35283 6.84335 7.96947C7.23126 7.58156 7.75379 7.3336 8.33225 7.3336C8.91071 7.3336 9.43325 7.58156 9.82116 7.96947C10.2045 8.35283 10.4436 8.85545 10.5382 9.3771C10.6369 9.92051 10.2763 10.441 9.73288 10.5396ZM15.903 9.73423C16.0016 10.2776 16.5221 10.6382 17.0655 10.5396C17.6089 10.441 17.9695 9.92051 17.8709 9.3771C17.7762 8.85545 17.5371 8.35283 17.1538 7.96947C16.7659 7.58156 16.2433 7.3336 15.6649 7.3336C15.0864 7.3336 14.5639 7.58156 14.176 7.96947C13.7926 8.35283 13.5535 8.85546 13.4589 9.3771C13.3603 9.92051 13.7208 10.441 14.2642 10.5396C14.8077 10.6382 15.3281 10.2776 15.4267 9.73423C15.458 9.56171 15.5295 9.4444 15.5902 9.38368C15.619 9.35482 15.6414 9.34243 15.6524 9.33757C15.6581 9.3351 15.6616 9.33419 15.6631 9.33387L15.6646 9.33362L15.6649 9.3336L15.6651 9.33362L15.6666 9.33387C15.6681 9.33419 15.6717 9.3351 15.6773 9.33757C15.6884 9.34243 15.7107 9.35482 15.7396 9.38368C15.8003 9.4444 15.8717 9.56171 15.903 9.73423Z" fill="#0F172A"/>
</svg>
