<svg width="24" height="24" viewBox="0 0 24 24" fill="none" xmlns="http://www.w3.org/2000/svg">
<path fill-rule="evenodd" clip-rule="evenodd" d="M6.66727 5.17234C7.16062 4.84269 7.74064 4.66675 8.33399 4.66675C8.71493 4.66675 9.02375 4.97556 9.02375 5.35651C9.02375 5.73745 8.71493 6.04627 8.33399 6.04627C8.01348 6.04627 7.70018 6.14131 7.4337 6.31937C7.16721 6.49743 6.95951 6.75051 6.83686 7.04662C6.71421 7.34272 6.68212 7.66855 6.74464 7.98289C6.80717 8.29723 6.96151 8.58597 7.18813 8.8126C7.41476 9.03923 7.7035 9.19356 8.01785 9.25609C8.33219 9.31861 8.65801 9.28652 8.95411 9.16387C9.25022 9.04122 9.5033 8.83352 9.68136 8.56704C9.85942 8.30055 9.95446 7.98725 9.95446 7.66675C9.95446 7.2858 10.2633 6.97699 10.6442 6.97699C11.0252 6.97699 11.334 7.2858 11.334 7.66675C11.334 8.26009 11.158 8.84011 10.8284 9.33346C10.4987 9.82681 10.0302 10.2113 9.48204 10.4384C8.93386 10.6654 8.33066 10.7249 7.74871 10.6091C7.16677 10.4933 6.63222 10.2076 6.21267 9.78807C5.79311 9.36851 5.50739 8.83396 5.39163 8.25202C5.27587 7.67008 5.33528 7.06688 5.56235 6.5187C5.78941 5.97052 6.17393 5.50198 6.66727 5.17234Z" fill="#334155"/>
<path fill-rule="evenodd" clip-rule="evenodd" d="M23.3202 8.66675C23.6956 8.66675 24 8.97746 24 9.36073V15.1717C24 18.1444 23.425 20.4058 21.9626 21.907C20.4992 23.4092 18.2938 24.0001 15.396 24.0001H8.604C5.70709 24.0001 3.50172 23.4094 2.03816 21.9074C0.575484 20.4063 0 18.1449 0 15.1717V12.8353C0 12.452 0.304373 12.1413 0.679835 12.1413C1.0553 12.1413 1.35967 12.452 1.35967 12.8353V15.1717C1.35967 18.0094 1.91725 19.8152 3.00214 20.9286C4.08615 22.0411 5.84286 22.6121 8.604 22.6121H15.396C18.158 22.6121 19.9147 22.0408 20.9985 20.9283C22.0832 19.8148 22.6403 18.009 22.6403 15.1717V9.36073C22.6403 8.97746 22.9447 8.66675 23.3202 8.66675Z" fill="#334155"/>
<path fill-rule="evenodd" clip-rule="evenodd" d="M2.06645 2.05018C3.54948 0.578822 5.7842 0 8.72178 0H13.3144C13.693 0 14 0.304539 14 0.680206C14 1.05587 13.693 1.36041 13.3144 1.36041H8.72178C5.91949 1.36041 4.13612 1.92071 3.03604 3.01214C1.93595 4.10357 1.3712 5.8729 1.3712 8.65313C1.3712 9.02879 1.06425 9.33333 0.685602 9.33333C0.306955 9.33333 0 9.02879 0 8.65313C0 5.73867 0.583414 3.52154 2.06645 2.05018Z" fill="#334155"/>
<path fill-rule="evenodd" clip-rule="evenodd" d="M15.334 3.99992C15.334 3.63173 15.6535 3.33325 16.0476 3.33325H22.6204C23.0145 3.33325 23.334 3.63173 23.334 3.99992C23.334 4.36811 23.0145 4.66659 22.6204 4.66659H16.0476C15.6535 4.66659 15.334 4.36811 15.334 3.99992Z" fill="#334155"/>
<path fill-rule="evenodd" clip-rule="evenodd" d="M19.3327 0C19.7009 0 19.9993 0.319492 19.9993 0.713606V7.28639C19.9993 7.68051 19.7009 8 19.3327 8C18.9645 8 18.666 7.68051 18.666 7.28639V0.713606C18.666 0.319492 18.9645 0 19.3327 0Z" fill="#334155"/>
<path fill-rule="evenodd" clip-rule="evenodd" d="M18.6991 13.1166L13.9809 17.2009L13.9684 17.2114C13.3947 17.6844 12.675 17.9429 11.9322 17.9429C11.1894 17.9429 10.4697 17.6844 9.89608 17.2114C9.8899 17.2063 9.8838 17.2011 9.8778 17.1958L9.51358 16.8734C9.20858 16.6273 8.83396 16.4835 8.44273 16.4626C8.04909 16.4415 7.65895 16.546 7.32826 16.7608L1.73082 20.5493C1.41838 20.7608 0.99404 20.6784 0.783024 20.3653C0.572007 20.0522 0.654226 19.6269 0.966664 19.4155L6.57811 15.6175C7.15234 15.2422 7.83085 15.0597 8.51545 15.0963C9.20004 15.1329 9.85528 15.3867 10.3864 15.8211C10.3933 15.8267 10.4001 15.8325 10.4068 15.8384L10.7721 16.1619C11.0999 16.4289 11.5096 16.5747 11.9322 16.5747C12.356 16.5747 12.7668 16.428 13.0951 16.1596L17.8133 12.0753L17.8258 12.0647C18.3995 11.5918 19.1192 11.3333 19.862 11.3333C20.6048 11.3333 21.3245 11.5918 21.8981 12.0647L21.9107 12.0754L23.763 13.6789C24.0483 13.9259 24.0797 14.3579 23.8333 14.6438C23.5868 14.9297 23.1557 14.9613 22.8704 14.7143L21.0248 13.1165C20.6965 12.8481 20.2858 12.7015 19.862 12.7015C19.4381 12.7015 19.0274 12.8481 18.6991 13.1166Z" fill="#334155"/>
</svg>
