<svg width="24" height="24" viewBox="0 0 24 24" fill="none" xmlns="http://www.w3.org/2000/svg">
    <path
        d="M12.0002 0C5.38304 0 0 5.38279 0 11.9995C0 18.6167 5.38329 24 12 24C18.6165 24 23.9993 18.6167 23.9993 11.9995C23.9995 5.38304 18.6167 0 12.0002 0ZM1.21097 11.9995C1.21097 10.4357 1.54638 8.95037 2.14514 7.60898L7.29177 21.7097C3.69302 19.9606 1.21097 16.2701 1.21097 11.9995ZM12.0002 22.7893C10.9411 22.7893 9.91895 22.6339 8.95237 22.3496L12.1893 12.9434L15.5062 22.0289C15.5277 22.0825 15.5539 22.1314 15.583 22.1776C14.4616 22.5721 13.2566 22.7893 12.0002 22.7893ZM13.4868 6.94115C14.1362 6.90698 14.7219 6.8384 14.7219 6.8384C15.303 6.76958 15.2349 5.91546 14.6529 5.94963C14.6529 5.94963 12.9055 6.08653 11.7771 6.08653C10.7172 6.08653 8.93516 5.94963 8.93516 5.94963C8.35362 5.91546 8.28578 6.80424 8.86708 6.8384C8.86708 6.8384 9.41771 6.90698 9.9985 6.94115L11.6793 11.5469L9.3182 18.6279L5.39002 6.9414C6.0404 6.90748 6.62494 6.83865 6.62494 6.83865C7.20598 6.77007 7.13741 5.91546 6.55561 5.95037C6.55561 5.95037 4.80898 6.08728 3.6803 6.08728C3.47756 6.08728 3.2389 6.08204 2.98603 6.07431C4.91471 3.14489 8.23117 1.21097 12.0002 1.21097C14.8095 1.21097 17.3666 2.28479 19.2858 4.04314C19.2392 4.04065 19.194 4.03441 19.1456 4.03441C18.0863 4.03441 17.3342 4.95761 17.3342 5.94938C17.3342 6.83815 17.8466 7.59077 18.3935 8.47955C18.8042 9.19825 19.283 10.1217 19.283 11.4551C19.283 12.3788 18.9284 13.4501 18.4618 14.9429L17.3858 18.5392L13.4868 6.94115ZM17.4239 21.3257L20.7194 11.7975C21.3357 10.2586 21.5399 9.02793 21.5399 7.93292C21.5399 7.53616 21.514 7.16733 21.4671 6.82344C22.31 8.36035 22.7895 10.1242 22.789 12C22.7888 15.98 20.6312 19.4554 17.4239 21.3257Z"
        fill="#151b3d" />
</svg>