<svg width="20" height="21" viewBox="0 0 20 21" fill="none" xmlns="http://www.w3.org/2000/svg">

    <path
        d="M1.44635 8.53512C1.44635 4.90506 4.38982 1.96487 8.0207 1.96487H11.6064C15.294 1.96487 18.2826 4.95434 18.2826 8.64189C18.2826 11.0729 16.9628 13.3068 14.8365 14.4812L8.22192 18.1441V15.1136H8.16689C4.47934 15.1957 1.44635 12.2309 1.44635 8.53512ZM8.0207 3.60744C5.29651 3.60744 3.08891 5.81668 3.08891 8.53512C3.08891 11.3028 5.36386 13.5285 8.12993 13.471L8.4182 13.4628H9.86448V15.3518L14.0423 13.044C15.6447 12.157 16.64 10.4733 16.64 8.64189C16.64 5.85775 14.3865 3.60744 11.6064 3.60744H8.0207Z"
        fill="#6D6D6D" />
</svg>