<svg width="20" height="21" viewBox="0 0 20 21" fill="none" xmlns="http://www.w3.org/2000/svg">
    <path
        d="M13.8287 4.83935C12.8251 4.79008 11.6285 5.25821 10.6339 6.61332L9.97278 7.50852L9.31083 6.61332C8.31543 5.25821 7.11801 4.79008 6.1144 4.83935C5.09355 4.89684 4.18521 5.47995 3.72447 6.408C3.27113 7.32783 3.2046 8.69116 4.11787 10.3666C4.99992 11.9845 6.79278 13.8734 9.97278 15.7952C13.1511 13.8734 14.9432 11.9845 15.8252 10.3666C16.7377 8.69116 16.6711 7.32783 16.217 6.408C15.7562 5.47995 14.8487 4.89684 13.8287 4.83935ZM17.2674 11.155C16.1578 13.1918 13.9815 15.36 10.3859 17.4542L9.97278 17.7006L9.55885 17.4542C5.96246 15.36 3.78607 13.1918 2.67488 11.155C1.55793 9.1018 1.51687 7.16358 2.25274 5.67706C2.98121 4.20697 4.42667 3.28713 6.03145 3.205C7.38739 3.13109 8.79752 3.66492 9.97196 4.85578C11.1456 3.66492 12.5557 3.13109 13.9108 3.205C15.5156 3.28713 16.9611 4.20697 17.6895 5.67706C18.4254 7.16358 18.3843 9.1018 17.2674 11.155Z"
        fill="#6D6D6D" />
</svg>