<svg width="21" height="21" viewBox="0 0 21 21" fill="none" xmlns="http://www.w3.org/2000/svg">
    <g clip-path="url(#clip0_3_251)">
        <path
            d="M4.25775 3.50888L7.89766 6.90898L6.77744 8.10805L5.07903 6.52298V13.4628C5.07903 14.3662 5.81489 15.1054 6.72159 15.1054H11.2386V16.7479H6.72159C4.90738 16.7479 3.43646 15.2778 3.43646 13.4628V6.52298L1.73806 8.10805L0.617828 6.90898L4.25775 3.50888ZM14.1131 5.25H9.59607V3.60743H14.1131C15.9273 3.60743 17.3982 5.07753 17.3982 6.89256V13.8324L19.0967 12.2473L20.2169 13.4464L16.577 16.8465L12.937 13.4464L14.0573 12.2473L15.7557 13.8324V6.89256C15.7557 5.98915 15.0198 5.25 14.1131 5.25Z"
            fill="#6D6D6D" />
    </g>

    <defs>
        <clipPath id="clip0_3_251">
            <rect x="0.562012" y="0.322327" width="19.7107" height="19.7107" fill="white" />
        </clipPath>
    </defs>
</svg>